<svg width="34" height="38" viewBox="0 0 34 38" fill="none" xmlns="http://www.w3.org/2000/svg">
<path d="M3.5565 33.938C5.863 36.5 9.5765 36.5 17 36.5C24.4235 36.5 28.137 36.5 30.4435 33.9362C32.75 31.376 32.75 27.2495 32.75 19C32.75 10.7505 32.75 6.62575 30.4435 4.062C28.137 1.49825 24.4235 1.5 17 1.5C9.5765 1.5 5.863 1.5 3.5565 4.062C1.25 6.6275 1.25 10.7505 1.25 19C1.25 27.2495 1.25 31.376 3.5565 33.938Z" stroke="#005CA9" stroke-width="2.5"/>
<path opacity="0.5" d="M8.25 12C8.25 11.1862 8.25 10.7802 8.33925 10.446C8.45859 10.0013 8.69281 9.59575 9.01841 9.27016C9.344 8.94456 9.74952 8.71034 10.1943 8.591C10.532 8.5 10.938 8.5 11.75 8.5H22.25C23.0638 8.5 23.4697 8.5 23.804 8.58925C24.2487 8.70859 24.6542 8.94281 24.9798 9.26841C25.3054 9.594 25.5397 9.99952 25.659 10.4443C25.75 10.782 25.75 11.188 25.75 12C25.75 12.812 25.75 13.2197 25.6607 13.554C25.5414 13.9987 25.3072 14.4042 24.9816 14.7298C24.656 15.0554 24.2505 15.2897 23.8057 15.409C23.4697 15.5 23.062 15.5 22.25 15.5H11.75C10.9362 15.5 10.5303 15.5 10.196 15.4108C9.75127 15.2914 9.34575 15.0572 9.02016 14.7316C8.69456 14.406 8.46034 14.0005 8.341 13.5557C8.25 13.218 8.25 12.812 8.25 12Z" stroke="#005CA9" stroke-width="2"/>
<path opacity="0.5" d="M10 22.5C10.9665 22.5 11.75 21.7165 11.75 20.75C11.75 19.7835 10.9665 19 10 19C9.0335 19 8.25 19.7835 8.25 20.75C8.25 21.7165 9.0335 22.5 10 22.5Z" fill="#005CA9"/>
<path opacity="0.5" d="M10 29.5C10.9665 29.5 11.75 28.7165 11.75 27.75C11.75 26.7835 10.9665 26 10 26C9.0335 26 8.25 26.7835 8.25 27.75C8.25 28.7165 9.0335 29.5 10 29.5Z" fill="#005CA9"/>
<path opacity="0.5" d="M17 22.5C17.9665 22.5 18.75 21.7165 18.75 20.75C18.75 19.7835 17.9665 19 17 19C16.0335 19 15.25 19.7835 15.25 20.75C15.25 21.7165 16.0335 22.5 17 22.5Z" fill="#005CA9"/>
<path opacity="0.5" d="M17 29.5C17.9665 29.5 18.75 28.7165 18.75 27.75C18.75 26.7835 17.9665 26 17 26C16.0335 26 15.25 26.7835 15.25 27.75C15.25 28.7165 16.0335 29.5 17 29.5Z" fill="#005CA9"/>
<path opacity="0.5" d="M24 22.5C24.9665 22.5 25.75 21.7165 25.75 20.75C25.75 19.7835 24.9665 19 24 19C23.0335 19 22.25 19.7835 22.25 20.75C22.25 21.7165 23.0335 22.5 24 22.5Z" fill="#005CA9"/>
<path opacity="0.5" d="M24 29.5C24.9665 29.5 25.75 28.7165 25.75 27.75C25.75 26.7835 24.9665 26 24 26C23.0335 26 22.25 26.7835 22.25 27.75C22.25 28.7165 23.0335 29.5 24 29.5Z" fill="#005CA9"/>
</svg>
