<svg width="36" height="26" viewBox="0 0 36 26" fill="none" xmlns="http://www.w3.org/2000/svg">
<path d="M35.3373 8.87177C35.4675 8.57706 35.5216 8.25441 35.4947 7.93338C35.4678 7.61234 35.3607 7.3032 35.1833 7.03427C34.7108 6.12602 31.4383 5.90202 31.5853 6.97652C31.6448 7.41052 31.7603 7.70452 31.2248 7.75702C31.1317 7.5781 31.0516 7.3927 30.9851 7.20227L30.0576 4.35502C29.6755 3.22384 28.8719 2.28359 27.8141 1.73002L27.1613 1.38002C26.1732 0.852203 25.0703 0.575736 23.9501 0.575018H12.0588C10.9378 0.573546 9.83373 0.848219 8.84408 1.37477L8.19308 1.72477C7.13522 2.27834 6.33162 3.21859 5.94958 4.34977L5.01508 7.19352C4.94924 7.3845 4.8697 7.57048 4.77708 7.75002C4.23808 7.69752 4.35533 7.40002 4.41483 6.96952C4.56183 5.89502 1.28933 6.11902 0.816833 7.02727C0.639457 7.2962 0.532411 7.60535 0.505505 7.92638C0.478599 8.24741 0.532694 8.57006 0.662833 8.86477C1.10231 9.15333 1.59715 9.34704 2.11574 9.43352C2.63432 9.52 3.16525 9.49735 3.67458 9.36702L1.78633 11.6718C1.13188 12.3602 0.769376 13.2752 0.774833 14.225L0.825583 23.612C0.846989 24.1098 1.06355 24.5791 1.42841 24.9184C1.79326 25.2578 2.27706 25.4397 2.77508 25.425H5.65208C5.88156 25.4326 6.10484 25.3498 6.27377 25.1943C6.44269 25.0388 6.54373 24.8231 6.55508 24.5938V24.557L6.50608 22.45H29.5046L29.4538 24.5675C29.4538 24.7996 29.546 25.0221 29.7101 25.1862C29.8742 25.3503 30.0968 25.4425 30.3288 25.4425H33.2408C33.7406 25.4581 34.2263 25.2756 34.5921 24.9347C34.958 24.5938 35.1742 24.1222 35.1938 23.6225L35.2463 14.2355C35.2518 13.2857 34.8893 12.3707 34.2348 11.6823L32.3256 9.36527C32.8343 9.49687 33.3649 9.52095 33.8835 9.43598C34.402 9.35101 34.8972 9.15885 35.3373 8.87177ZM6.42908 7.57502C6.47932 6.10223 7.11166 4.70951 8.1874 3.70233C9.26313 2.69516 10.6944 2.15578 12.1673 2.20252H23.8328C25.3077 2.15628 26.7407 2.69713 27.8172 3.70637C28.8936 4.7156 29.5257 6.11073 29.5746 7.58552V8.37302C29.5741 8.43073 29.5509 8.48592 29.5099 8.52657C29.4689 8.56721 29.4135 8.59002 29.3558 8.59002H6.64608C6.58853 8.59002 6.53334 8.56716 6.49264 8.52646C6.45195 8.48577 6.42908 8.43057 6.42908 8.37302V7.57502ZM8.86683 14.6258C8.82812 14.6862 8.77514 14.7361 8.71258 14.7712C8.65003 14.8063 8.5798 14.8255 8.50808 14.827H3.15308C2.91508 14.827 2.42158 14.7185 2.42158 13.9958L2.78383 12.125C2.90808 11.474 4.19433 11.5108 4.76658 11.852L8.72508 14.0343C8.82271 14.0953 8.89234 14.1924 8.91888 14.3044C8.94541 14.4164 8.92671 14.5344 8.86683 14.6328V14.6258ZM33.2251 12.125L33.5873 14.0028C33.5873 14.7255 33.0938 14.834 32.8558 14.834H27.5008C27.4077 14.8318 27.3178 14.7995 27.2445 14.7421C27.1712 14.6846 27.1184 14.605 27.094 14.5151C27.0696 14.4252 27.0749 14.3298 27.1091 14.2432C27.1433 14.1565 27.2046 14.0833 27.2838 14.0343L31.2493 11.852C31.8058 11.5108 33.0921 11.4705 33.2251 12.125Z" fill="#919191"/>
</svg>
