<svg width="32" height="38" viewBox="0 0 32 38" fill="none" xmlns="http://www.w3.org/2000/svg">
<path d="M21.25 1.5H10.75C9.7835 1.5 9 2.2835 9 3.25V6.75C9 7.7165 9.7835 8.5 10.75 8.5H21.25C22.2165 8.5 23 7.7165 23 6.75V3.25C23 2.2835 22.2165 1.5 21.25 1.5Z" stroke="#005CA9" stroke-width="3" stroke-linecap="round" stroke-linejoin="round"/>
<path d="M23 5H26.5C27.4283 5 28.3185 5.36875 28.9749 6.02513C29.6313 6.6815 30 7.57174 30 8.5V33C30 33.9283 29.6313 34.8185 28.9749 35.4749C28.3185 36.1313 27.4283 36.5 26.5 36.5H5.5C4.57174 36.5 3.6815 36.1313 3.02513 35.4749C2.36875 34.8185 2 33.9283 2 33V8.5C2 7.57174 2.36875 6.6815 3.02513 6.02513C3.6815 5.36875 4.57174 5 5.5 5H9M16 17.25H23M16 26H23M9 17.25H9.0175M9 26H9.0175" stroke="#005CA9" stroke-width="3" stroke-linecap="round" stroke-linejoin="round"/>
</svg>
