<svg width="50" height="40" viewBox="0 0 50 40" fill="none" xmlns="http://www.w3.org/2000/svg">
<rect x="7" y="10" width="42" height="29" rx="2" fill="white" stroke="#005CA9" stroke-width="2"/>
<rect x="1" y="1" width="42" height="29" rx="2" stroke="#A3BEF1" stroke-width="2"/>
<path d="M25.375 29.8776C25.375 30.6176 25.1597 31.2467 24.729 31.7647C24.2983 32.2827 23.7822 32.5417 23.1807 32.5417H14.4443C13.8428 32.5417 13.3267 32.2827 12.896 31.7647C12.4653 31.2467 12.25 30.6176 12.25 29.8776C12.25 29.1511 12.3013 28.475 12.4038 27.8493C12.5063 27.2237 12.6738 26.6182 12.9062 26.0329C13.1387 25.4476 13.4873 24.9868 13.9521 24.6504C14.417 24.314 14.9707 24.1459 15.6133 24.1459C16.4883 25.007 17.5547 25.4375 18.8125 25.4375C20.0703 25.4375 21.1367 25.007 22.0117 24.1459C22.6543 24.1459 23.208 24.314 23.6729 24.6504C24.1377 24.9868 24.4863 25.4476 24.7188 26.0329C24.9512 26.6182 25.1187 27.2237 25.2212 27.8493C25.3237 28.475 25.375 29.1511 25.375 29.8776ZM22.75 20.9167C22.75 21.9931 22.3672 22.908 21.6016 23.6615C20.8359 24.415 19.9062 24.7917 18.8125 24.7917C17.7188 24.7917 16.7891 24.415 16.0234 23.6615C15.2578 22.908 14.875 21.9931 14.875 20.9167C14.875 19.8403 15.2578 18.9254 16.0234 18.1719C16.7891 17.4184 17.7188 17.0417 18.8125 17.0417C19.9062 17.0417 20.8359 17.4184 21.6016 18.1719C22.3672 18.9254 22.75 19.8403 22.75 20.9167ZM43.75 29.3125V30.6042C43.75 30.7926 43.6885 30.9473 43.5654 31.0684C43.4424 31.1895 43.2852 31.25 43.0938 31.25H28.6562C28.4648 31.25 28.3076 31.1895 28.1846 31.0684C28.0615 30.9473 28 30.7926 28 30.6042V29.3125C28 29.1242 28.0615 28.9694 28.1846 28.8483C28.3076 28.7272 28.4648 28.6667 28.6562 28.6667H43.0938C43.2852 28.6667 43.4424 28.7272 43.5654 28.8483C43.6885 28.9694 43.75 29.1242 43.75 29.3125ZM35.875 24.1459V25.4375C35.875 25.6259 35.8135 25.7806 35.6904 25.9017C35.5674 26.0228 35.4102 26.0834 35.2188 26.0834H28.6562C28.4648 26.0834 28.3076 26.0228 28.1846 25.9017C28.0615 25.7806 28 25.6259 28 25.4375V24.1459C28 23.9575 28.0615 23.8028 28.1846 23.6817C28.3076 23.5606 28.4648 23.5 28.6562 23.5H35.2188C35.4102 23.5 35.5674 23.5606 35.6904 23.6817C35.8135 23.8028 35.875 23.9575 35.875 24.1459ZM43.75 24.1459V25.4375C43.75 25.6259 43.6885 25.7806 43.5654 25.9017C43.4424 26.0228 43.2852 26.0834 43.0938 26.0834H39.1562C38.9648 26.0834 38.8076 26.0228 38.6846 25.9017C38.5615 25.7806 38.5 25.6259 38.5 25.4375V24.1459C38.5 23.9575 38.5615 23.8028 38.6846 23.6817C38.8076 23.5606 38.9648 23.5 39.1562 23.5H43.0938C43.2852 23.5 43.4424 23.5606 43.5654 23.6817C43.6885 23.8028 43.75 23.9575 43.75 24.1459ZM43.75 18.9792V20.2709C43.75 20.4592 43.6885 20.614 43.5654 20.735C43.4424 20.8561 43.2852 20.9167 43.0938 20.9167H28.6562C28.4648 20.9167 28.3076 20.8561 28.1846 20.735C28.0615 20.614 28 20.4592 28 20.2709V18.9792C28 18.7908 28.0615 18.6361 28.1846 18.515C28.3076 18.3939 28.4648 18.3334 28.6562 18.3334H43.0938C43.2852 18.3334 43.4424 18.3939 43.5654 18.515C43.6885 18.6361 43.75 18.7908 43.75 18.9792Z" fill="#005CA9"/>
</svg>
