<svg width="42" height="30" viewBox="0 0 42 30" fill="none" xmlns="http://www.w3.org/2000/svg">
<rect width="42" height="30" rx="3" fill="#919191"/>
<path d="M17.375 19.8777C17.375 20.6177 17.1597 21.2467 16.729 21.7647C16.2983 22.2827 15.7822 22.5417 15.1807 22.5417H6.44434C5.84277 22.5417 5.32666 22.2827 4.896 21.7647C4.46533 21.2467 4.25 20.6177 4.25 19.8777C4.25 19.1511 4.30127 18.475 4.40381 17.8494C4.50635 17.2237 4.67383 16.6182 4.90625 16.033C5.13867 15.4477 5.4873 14.9868 5.95215 14.6505C6.41699 14.3141 6.9707 14.1459 7.61328 14.1459C8.48828 15.007 9.55469 15.4376 10.8125 15.4376C12.0703 15.4376 13.1367 15.007 14.0117 14.1459C14.6543 14.1459 15.208 14.3141 15.6729 14.6505C16.1377 14.9868 16.4863 15.4477 16.7188 16.033C16.9512 16.6182 17.1187 17.2237 17.2212 17.8494C17.3237 18.475 17.375 19.1511 17.375 19.8777ZM14.75 10.9167C14.75 11.9931 14.3672 12.9081 13.6016 13.6615C12.8359 14.415 11.9062 14.7917 10.8125 14.7917C9.71875 14.7917 8.78906 14.415 8.02344 13.6615C7.25781 12.9081 6.875 11.9931 6.875 10.9167C6.875 9.84036 7.25781 8.92543 8.02344 8.17196C8.78906 7.41848 9.71875 7.04175 10.8125 7.04175C11.9062 7.04175 12.8359 7.41848 13.6016 8.17196C14.3672 8.92543 14.75 9.84036 14.75 10.9167ZM35.75 19.3126V20.6042C35.75 20.7926 35.6885 20.9473 35.5654 21.0684C35.4424 21.1895 35.2852 21.2501 35.0938 21.2501H20.6562C20.4648 21.2501 20.3076 21.1895 20.1846 21.0684C20.0615 20.9473 20 20.7926 20 20.6042V19.3126C20 19.1242 20.0615 18.9695 20.1846 18.8484C20.3076 18.7273 20.4648 18.6667 20.6562 18.6667H35.0938C35.2852 18.6667 35.4424 18.7273 35.5654 18.8484C35.6885 18.9695 35.75 19.1242 35.75 19.3126ZM27.875 14.1459V15.4376C27.875 15.6259 27.8135 15.7807 27.6904 15.9018C27.5674 16.0229 27.4102 16.0834 27.2188 16.0834H20.6562C20.4648 16.0834 20.3076 16.0229 20.1846 15.9018C20.0615 15.7807 20 15.6259 20 15.4376V14.1459C20 13.9575 20.0615 13.8028 20.1846 13.6817C20.3076 13.5606 20.4648 13.5001 20.6562 13.5001H27.2188C27.4102 13.5001 27.5674 13.5606 27.6904 13.6817C27.8135 13.8028 27.875 13.9575 27.875 14.1459ZM35.75 14.1459V15.4376C35.75 15.6259 35.6885 15.7807 35.5654 15.9018C35.4424 16.0229 35.2852 16.0834 35.0938 16.0834H31.1562C30.9648 16.0834 30.8076 16.0229 30.6846 15.9018C30.5615 15.7807 30.5 15.6259 30.5 15.4376V14.1459C30.5 13.9575 30.5615 13.8028 30.6846 13.6817C30.8076 13.5606 30.9648 13.5001 31.1562 13.5001H35.0938C35.2852 13.5001 35.4424 13.5606 35.5654 13.6817C35.6885 13.8028 35.75 13.9575 35.75 14.1459ZM35.75 8.97925V10.2709C35.75 10.4593 35.6885 10.614 35.5654 10.7351C35.4424 10.8562 35.2852 10.9167 35.0938 10.9167H20.6562C20.4648 10.9167 20.3076 10.8562 20.1846 10.7351C20.0615 10.614 20 10.4593 20 10.2709V8.97925C20 8.79088 20.0615 8.63615 20.1846 8.51506C20.3076 8.39396 20.4648 8.33342 20.6562 8.33342H35.0938C35.2852 8.33342 35.4424 8.39396 35.5654 8.51506C35.6885 8.63615 35.75 8.79088 35.75 8.97925Z" fill="white"/>
</svg>
