<svg width="20" height="21" viewBox="0 0 20 21" fill="none" xmlns="http://www.w3.org/2000/svg">
<path d="M2.99984 18.1663H6.49984V12.333C6.49984 12.0025 6.61184 11.7256 6.83584 11.5023C7.05984 11.2791 7.33673 11.1671 7.6665 11.1663H12.3332C12.6637 11.1663 12.941 11.2783 13.165 11.5023C13.389 11.7263 13.5006 12.0032 13.4998 12.333V18.1663H16.9998V7.66634L9.99984 2.41634L2.99984 7.66634V18.1663ZM0.666504 18.1663V7.66634C0.666504 7.2969 0.749337 6.9469 0.915004 6.61634C1.08067 6.28579 1.30895 6.01356 1.59984 5.79967L8.59984 0.549675C9.00817 0.238563 9.47484 0.0830078 9.99984 0.0830078C10.5248 0.0830078 10.9915 0.238563 11.3998 0.549675L18.3998 5.79967C18.6915 6.01356 18.9202 6.28579 19.0858 6.61634C19.2515 6.9469 19.334 7.2969 19.3332 7.66634V18.1663C19.3332 18.808 19.1045 19.3575 18.6472 19.8148C18.1898 20.2722 17.6407 20.5005 16.9998 20.4997H12.3332C12.0026 20.4997 11.7257 20.3877 11.5025 20.1637C11.2793 19.9397 11.1673 19.6628 11.1665 19.333V13.4997H8.83317V19.333C8.83317 19.6636 8.72117 19.9408 8.49717 20.1648C8.27317 20.3888 7.99628 20.5005 7.6665 20.4997H2.99984C2.35817 20.4997 1.80906 20.2714 1.3525 19.8148C0.895948 19.3583 0.667282 18.8088 0.666504 18.1663Z" fill="#A3BEF1"/>
</svg>
