<svg width="24" height="24" viewBox="0 0 24 24" fill="none" xmlns="http://www.w3.org/2000/svg">
<path fill-rule="evenodd" clip-rule="evenodd" d="M9.707 2.409C9 3.036 9 4.183 9 6.476V17.524C9 19.817 9 20.964 9.707 21.591C10.414 22.218 11.495 22.03 13.657 21.653L15.987 21.247C18.381 20.829 19.578 20.62 20.289 19.742C21 18.863 21 17.593 21 15.052V8.948C21 6.408 21 5.138 20.29 4.259C19.578 3.381 18.38 3.172 15.986 2.755L13.658 2.348C11.496 1.971 10.415 1.783 9.708 2.41M12 10.169C12.414 10.169 12.75 10.52 12.75 10.953V13.047C12.75 13.48 12.414 13.831 12 13.831C11.586 13.831 11.25 13.48 11.25 13.047V10.953C11.25 10.52 11.586 10.169 12 10.169Z" fill="white"/>
<path d="M7.547 4.5C5.489 4.503 4.416 4.548 3.732 5.232C3 5.964 3 7.142 3 9.5V14.5C3 16.857 3 18.035 3.732 18.768C4.416 19.451 5.489 19.497 7.547 19.5C7.5 18.876 7.5 18.156 7.5 17.377V6.623C7.5 5.843 7.5 5.123 7.547 4.5Z" fill="white"/>
</svg>
