<svg width="42" height="34" viewBox="0 0 42 34" fill="none" xmlns="http://www.w3.org/2000/svg">
<g filter="url(#filter0_d_397_367)">
<path d="M35.4374 12.6875C35.0746 12.6883 34.7125 12.7185 34.3546 12.7777L33.3997 10.2938C34.0681 10.1404 34.7516 10.0628 35.4374 10.0625C35.7855 10.0625 36.1193 9.92422 36.3655 9.67808C36.6116 9.43194 36.7499 9.0981 36.7499 8.75C36.7499 8.4019 36.6116 8.06806 36.3655 7.82192C36.1193 7.57578 35.7855 7.4375 35.4374 7.4375H32.3005L30.1004 1.71664C30.0052 1.46889 29.8371 1.25582 29.6183 1.10556C29.3995 0.955307 29.1403 0.874916 28.8749 0.875H23.6249C23.2768 0.875 22.9429 1.01328 22.6968 1.25942C22.4507 1.50556 22.3124 1.8394 22.3124 2.1875C22.3124 2.5356 22.4507 2.86944 22.6968 3.11558C22.9429 3.36172 23.2768 3.5 23.6249 3.5H27.9742L29.4885 7.4375H24.9374C21.9022 7.4375 19.4413 8.14461 17.822 9.48172C17.4409 9.78912 16.9815 9.98382 16.4956 10.0438C16.0097 10.1038 15.5167 10.0268 15.0723 9.82133C13.3365 9.03219 3.04816 4.87977 2.96449 4.8568C2.63752 4.76069 2.28599 4.79553 1.98425 4.95395C1.68251 5.11237 1.45422 5.38195 1.34766 5.70566C1.24111 6.02937 1.26465 6.38184 1.4133 6.68851C1.56195 6.99518 1.82405 7.23201 2.14418 7.34891C2.14418 7.34891 11.2496 10.9484 13.0593 12.7531C14.4651 14.1533 15.3768 15.9732 15.6564 17.9375H12.9936C12.6684 16.3441 11.763 14.9282 10.4532 13.9643C9.14329 13.0004 7.52218 12.5573 5.90413 12.7207C4.28608 12.8842 2.78635 13.6426 1.69571 14.849C0.605076 16.0554 0.0012207 17.6237 0.0012207 19.25C0.0012207 20.8763 0.605076 22.4446 1.69571 23.651C2.78635 24.8574 4.28608 25.6158 5.90413 25.7793C7.52218 25.9427 9.14329 25.4996 10.4532 24.5357C11.763 23.5718 12.6684 22.1559 12.9936 20.5625H21.5446C22.6829 20.565 23.7911 20.1964 24.7012 19.5125C25.6112 18.8286 26.2736 17.8668 26.5879 16.7727C26.9152 15.6089 27.4691 14.5211 28.2177 13.5718C28.9663 12.6225 29.8949 11.8302 30.9503 11.2405L31.9051 13.7227C30.5748 14.5742 29.5963 15.8768 29.149 17.3916C28.7017 18.9064 28.8158 20.5317 29.4702 21.9691C30.1247 23.4066 31.2756 24.5598 32.7117 25.2172C34.1479 25.8745 35.7729 25.9918 37.2886 25.5476C38.8043 25.1034 40.1089 24.1274 40.963 22.7989C41.8171 21.4703 42.1635 19.8783 41.9384 18.315C41.7134 16.7517 40.9321 15.3219 39.7379 14.2882C38.5437 13.2545 37.0168 12.6862 35.4374 12.6875ZM6.56238 20.5625H10.2735C9.96386 21.4382 9.35463 22.1763 8.55347 22.6463C7.75231 23.1162 6.81079 23.2879 5.89533 23.1308C4.97986 22.9737 4.1494 22.4981 3.55071 21.7879C2.95203 21.0778 2.62366 20.1788 2.62366 19.25C2.62366 18.3212 2.95203 17.4222 3.55071 16.7121C4.1494 16.0019 4.97986 15.5263 5.89533 15.3692C6.81079 15.2121 7.75231 15.3838 8.55347 15.8537C9.35463 16.3237 9.96386 17.0618 10.2735 17.9375H6.56238C6.21428 17.9375 5.88045 18.0758 5.6343 18.3219C5.38816 18.5681 5.24988 18.9019 5.24988 19.25C5.24988 19.5981 5.38816 19.9319 5.6343 20.1781C5.88045 20.4242 6.21428 20.5625 6.56238 20.5625ZM35.4374 23.1875C34.6331 23.1865 33.8484 22.9392 33.1889 22.4789C32.5293 22.0187 32.0265 21.3674 31.7482 20.6129C31.4698 19.8583 31.4291 19.0366 31.6317 18.2582C31.8343 17.4799 32.2704 16.7823 32.8813 16.2591L34.2118 19.7209C34.3367 20.0459 34.5856 20.308 34.9037 20.4495C35.2219 20.5911 35.5832 20.6004 35.9082 20.4755C36.2333 20.3507 36.4954 20.1018 36.6369 19.7836C36.7785 19.4655 36.7878 19.1042 36.6629 18.7791L35.3307 15.3125H35.4374C36.4817 15.3125 37.4832 15.7273 38.2216 16.4658C38.96 17.2042 39.3749 18.2057 39.3749 19.25C39.3749 20.2943 38.96 21.2958 38.2216 22.0342C37.4832 22.7727 36.4817 23.1875 35.4374 23.1875Z" fill="#919191"/>
</g>
<defs>
<filter id="filter0_d_397_367" x="-3.99878" y="0.875" width="50.0042" height="32.9375" filterUnits="userSpaceOnUse" color-interpolation-filters="sRGB">
<feFlood flood-opacity="0" result="BackgroundImageFix"/>
<feColorMatrix in="SourceAlpha" type="matrix" values="0 0 0 0 0 0 0 0 0 0 0 0 0 0 0 0 0 0 127 0" result="hardAlpha"/>
<feOffset dy="4"/>
<feGaussianBlur stdDeviation="2"/>
<feComposite in2="hardAlpha" operator="out"/>
<feColorMatrix type="matrix" values="0 0 0 0 0 0 0 0 0 0 0 0 0 0 0 0 0 0 0.25 0"/>
<feBlend mode="normal" in2="BackgroundImageFix" result="effect1_dropShadow_397_367"/>
<feBlend mode="normal" in="SourceGraphic" in2="effect1_dropShadow_397_367" result="shape"/>
</filter>
</defs>
</svg>
