<svg width="42" height="37" viewBox="0 0 42 37" fill="none" xmlns="http://www.w3.org/2000/svg">
<path d="M13.0833 10.1667L14.3333 11.4167L16.8333 8.91669M13.0833 16L14.3333 17.25L16.8333 14.75M13.0833 21.8334L14.3333 23.0834L16.8333 20.5834M19.75 16H28.9166M19.75 21.8334H28.9166M19.75 10.1667H28.9166" stroke="#005CA9" stroke-width="2" stroke-linecap="round" stroke-linejoin="round"/>
<path d="M14 37V32.375H3.77067C2.69578 32.375 1.799 32.0189 1.08033 31.3066C0.361667 30.5944 0.00155556 29.7048 0 28.638V3.737C0 2.67171 0.360111 1.78294 1.08033 1.07069C1.80056 0.358437 2.69655 0.00154167 3.76833 0H38.2317C39.305 0 40.201 0.356895 40.9197 1.07069C41.6383 1.78448 41.9984 2.67325 42 3.737V28.6403C42 29.7041 41.6399 30.5928 40.9197 31.3066C40.1994 32.0204 39.3034 32.3765 38.2317 32.375H28V37H14ZM3.77067 30.0625H38.2317C38.5894 30.0625 38.9184 29.9145 39.2187 29.6185C39.5189 29.3225 39.6682 28.9957 39.6667 28.638V3.737C39.6667 3.38088 39.5173 3.05404 39.2187 2.7565C38.92 2.45896 38.591 2.31096 38.2317 2.3125H3.76833C3.41055 2.3125 3.08156 2.4605 2.78133 2.7565C2.48111 3.0525 2.33178 3.37933 2.33333 3.737V28.6403C2.33333 28.9949 2.48267 29.321 2.78133 29.6185C3.08 29.916 3.409 30.064 3.76833 30.0625" fill="#005CA9"/>
</svg>
