<svg width="42" height="43" viewBox="0 0 42 43" fill="none" xmlns="http://www.w3.org/2000/svg">
<path d="M20.165 23.67C23.4727 23.67 26.2719 22.5241 28.5624 20.2324C30.8529 17.9406 31.9988 15.1415 32 11.835C32.0012 8.52848 30.8553 5.72935 28.5624 3.43761C26.2694 1.14587 23.4703 0 20.165 0C16.8597 0 14.06 1.14587 11.7658 3.43761C9.47163 5.72935 8.32637 8.52848 8.33001 11.835C8.33001 13.1702 8.54244 14.4296 8.96728 15.6131C9.39213 16.7966 9.9687 17.8435 10.697 18.7539L0.500713 28.9502C0.166906 29.284 0 29.7089 0 30.2248C0 30.7406 0.166906 31.1655 0.500713 31.4993C0.83452 31.8331 1.25937 32 1.77525 32C2.29113 32 2.71598 31.8331 3.04979 31.4993L13.2461 21.303C14.1565 22.0313 15.2034 22.6079 16.3869 23.0327C17.5704 23.4576 18.8298 23.67 20.165 23.67ZM20.165 20.0285C17.889 20.0285 15.9542 19.2322 14.3604 17.6396C12.7666 16.047 11.9703 14.1122 11.9715 11.835C11.9728 9.55782 12.769 7.62356 14.3604 6.03221C15.9517 4.44085 17.8866 3.64396 20.165 3.64154C22.4434 3.63911 24.3777 4.436 25.9678 6.03221C27.5579 7.62841 28.3548 9.56267 28.3585 11.835C28.3621 14.1073 27.5652 16.0422 25.9678 17.6396C24.3704 19.237 22.4361 20.0333 20.165 20.0285Z" fill="#005CA9"/>
<path fill-rule="evenodd" clip-rule="evenodd" d="M23.625 37.25H21.7333L21.1348 39.0455L20.8582 39.875H17.5V34.66C18.368 34.8858 19.6228 35.0625 21.4375 35.0625C21.7856 35.0625 22.1194 34.9242 22.3656 34.6781C22.6117 34.432 22.75 34.0981 22.75 33.75C22.75 33.4019 22.6117 33.0681 22.3656 32.8219C22.1194 32.5758 21.7856 32.4375 21.4375 32.4375C19.5598 32.4375 18.494 32.2275 17.941 32.0578C17.8197 32.0205 17.7005 31.9767 17.584 31.9265C17.7181 31.3493 18.0123 30.8216 18.4327 30.404C18.5611 30.2757 18.6859 30.1427 18.8073 30.005C21.476 30.7628 24.7625 31.125 28 31.125C31.2375 31.125 34.524 30.7628 37.1928 30.005C37.3129 30.1439 37.4377 30.2769 37.5672 30.404C37.989 30.8275 38.2812 31.356 38.416 31.9265C38.339 31.9639 38.22 32.0076 38.059 32.0578C37.506 32.2275 36.4403 32.4375 34.5625 32.4375C34.2144 32.4375 33.8806 32.5758 33.6344 32.8219C33.3883 33.0681 33.25 33.4019 33.25 33.75C33.25 34.0981 33.3883 34.432 33.6344 34.6781C33.8806 34.9242 34.2144 35.0625 34.5625 35.0625C36.3773 35.0625 37.632 34.8858 38.5 34.66V39.875H35.1418L34.8652 39.0455L34.2668 37.25H23.625ZM35.742 27.674C33.502 28.2165 30.772 28.5 28 28.5C25.228 28.5 22.498 28.2165 20.258 27.674C20.3117 27.5434 20.363 27.4115 20.412 27.2785L21.196 25.0788C21.511 24.195 22.1935 23.6683 22.876 23.5685C26.2743 23.0854 29.7239 23.0854 33.1222 23.5685C33.8083 23.6683 34.4872 24.195 34.8022 25.0788L35.5898 27.2785C35.6364 27.4115 35.6872 27.5434 35.742 27.674ZM32.851 41.303L32.375 39.875H23.625L23.149 41.303C23.0329 41.6516 22.81 41.9548 22.5119 42.1697C22.2138 42.3845 21.8557 42.5001 21.4882 42.5H16.625C16.1609 42.5 15.7158 42.3156 15.3876 41.9875C15.0594 41.6593 14.875 41.2141 14.875 40.75V32.6563C14.875 31.1163 15.4875 29.6375 16.576 28.549C16.858 28.2678 17.1102 27.9581 17.3285 27.625H16.1875C15.8394 27.625 15.5056 27.4867 15.2594 27.2406C15.0133 26.9945 14.875 26.6606 14.875 26.3125C14.875 25.9644 15.0133 25.6306 15.2594 25.3844C15.5056 25.1383 15.8394 25 16.1875 25H18.438L18.725 24.195C19.3253 22.515 20.734 21.227 22.4997 20.9715C26.1482 20.4521 29.8518 20.4521 33.5002 20.9715C35.266 21.227 36.6748 22.515 37.275 24.1968L37.562 25H39.8125C40.1606 25 40.4944 25.1383 40.7406 25.3844C40.9867 25.6306 41.125 25.9644 41.125 26.3125C41.125 26.6606 40.9867 26.9945 40.7406 27.2406C40.4944 27.4867 40.1606 27.625 39.8125 27.625H38.6733C38.8914 27.9587 39.1417 28.2667 39.424 28.549C40.5131 29.6385 41.1249 31.1158 41.125 32.6563V40.75C41.125 41.2141 40.9406 41.6593 40.6124 41.9875C40.2842 42.3156 39.8391 42.5 39.375 42.5H34.51C34.1429 42.4997 33.7851 42.384 33.4874 42.1692C33.1896 41.9544 32.967 41.6513 32.851 41.303Z" fill="#A3BEF1"/>
</svg>
