<svg width="50" height="44" viewBox="0 0 50 44" fill="none" xmlns="http://www.w3.org/2000/svg">
<path d="M19 34.8333C21.0796 34.8359 23.1393 34.4275 25.0606 33.6316C26.9819 32.8358 28.727 31.6681 30.1957 30.1957C31.6681 28.727 32.8358 26.9819 33.6316 25.0606C34.4275 23.1393 34.8359 21.0796 34.8333 19C34.8359 16.9203 34.4275 14.8607 33.6316 12.9394C32.8358 11.018 31.6681 9.2729 30.1957 7.80422C28.727 6.33185 26.9819 5.16419 25.0606 4.36832C23.1393 3.57246 21.0796 3.16407 19 3.16664C16.9203 3.16407 14.8607 3.57246 12.9394 4.36832C11.018 5.16419 9.2729 6.33185 7.80422 7.80422C6.33185 9.2729 5.16419 11.018 4.36832 12.9394C3.57246 14.8607 3.16407 16.9203 3.16664 19C3.16407 21.0796 3.57246 23.1393 4.36832 25.0606C5.16419 26.9819 6.33185 28.727 7.80422 30.1957C9.2729 31.6681 11.018 32.8358 12.9394 33.6316C14.8607 34.4275 16.9203 34.8359 19 34.8333Z" stroke="#005CA9" stroke-width="2.5" stroke-linejoin="round"/>
<path fill-rule="evenodd" clip-rule="evenodd" d="M19 29.2916C19.5249 29.2916 20.0283 29.0831 20.3995 28.712C20.7706 28.3408 20.9791 27.8374 20.9791 27.3125C20.9791 26.7876 20.7706 26.2842 20.3995 25.913C20.0283 25.5418 19.5249 25.3333 19 25.3333C18.4751 25.3333 17.9717 25.5418 17.6005 25.913C17.2293 26.2842 17.0208 26.7876 17.0208 27.3125C17.0208 27.8374 17.2293 28.3408 17.6005 28.712C17.9717 29.0831 18.4751 29.2916 19 29.2916Z" fill="#005CA9"/>
<path d="M19 9.5V22.1667" stroke="#005CA9" stroke-width="2.5" stroke-linecap="round" stroke-linejoin="round"/>
<circle cx="35.5" cy="31.5" r="9.5" fill="white"/>
<path fill-rule="evenodd" clip-rule="evenodd" d="M31.625 38.25H29.7333L29.1348 40.0455L28.8582 40.875H25.5V35.66C26.368 35.8858 27.6228 36.0625 29.4375 36.0625C29.7856 36.0625 30.1194 35.9242 30.3656 35.6781C30.6117 35.432 30.75 35.0981 30.75 34.75C30.75 34.4019 30.6117 34.0681 30.3656 33.8219C30.1194 33.5758 29.7856 33.4375 29.4375 33.4375C27.5598 33.4375 26.494 33.2275 25.941 33.0578C25.8197 33.0205 25.7005 32.9767 25.584 32.9265C25.7181 32.3493 26.0123 31.8216 26.4327 31.404C26.5611 31.2757 26.6859 31.1427 26.8073 31.005C29.476 31.7628 32.7625 32.125 36 32.125C39.2375 32.125 42.524 31.7628 45.1928 31.005C45.3129 31.1439 45.4377 31.2769 45.5672 31.404C45.989 31.8275 46.2812 32.356 46.416 32.9265C46.339 32.9639 46.22 33.0076 46.059 33.0578C45.506 33.2275 44.4403 33.4375 42.5625 33.4375C42.2144 33.4375 41.8806 33.5758 41.6344 33.8219C41.3883 34.0681 41.25 34.4019 41.25 34.75C41.25 35.0981 41.3883 35.432 41.6344 35.6781C41.8806 35.9242 42.2144 36.0625 42.5625 36.0625C44.3773 36.0625 45.632 35.8858 46.5 35.66V40.875H43.1418L42.8652 40.0455L42.2668 38.25H31.625ZM43.742 28.674C41.502 29.2165 38.772 29.5 36 29.5C33.228 29.5 30.498 29.2165 28.258 28.674C28.3117 28.5434 28.363 28.4115 28.412 28.2785L29.196 26.0788C29.511 25.195 30.1935 24.6683 30.876 24.5685C34.2743 24.0854 37.7239 24.0854 41.1222 24.5685C41.8083 24.6683 42.4872 25.195 42.8022 26.0788L43.5898 28.2785C43.6364 28.4115 43.6872 28.5434 43.742 28.674ZM40.851 42.303L40.375 40.875H31.625L31.149 42.303C31.0329 42.6516 30.81 42.9548 30.5119 43.1697C30.2138 43.3845 29.8557 43.5001 29.4882 43.5H24.625C24.1609 43.5 23.7158 43.3156 23.3876 42.9875C23.0594 42.6593 22.875 42.2141 22.875 41.75V33.6563C22.875 32.1163 23.4875 30.6375 24.576 29.549C24.858 29.2678 25.1102 28.9581 25.3285 28.625H24.1875C23.8394 28.625 23.5056 28.4867 23.2594 28.2406C23.0133 27.9945 22.875 27.6606 22.875 27.3125C22.875 26.9644 23.0133 26.6306 23.2594 26.3844C23.5056 26.1383 23.8394 26 24.1875 26H26.438L26.725 25.195C27.3253 23.515 28.734 22.227 30.4997 21.9715C34.1482 21.4521 37.8518 21.4521 41.5002 21.9715C43.266 22.227 44.6748 23.515 45.275 25.1968L45.562 26H47.8125C48.1606 26 48.4944 26.1383 48.7406 26.3844C48.9867 26.6306 49.125 26.9644 49.125 27.3125C49.125 27.6606 48.9867 27.9945 48.7406 28.2406C48.4944 28.4867 48.1606 28.625 47.8125 28.625H46.6733C46.8914 28.9587 47.1417 29.2667 47.424 29.549C48.5131 30.6385 49.1249 32.1158 49.125 33.6563V41.75C49.125 42.2141 48.9406 42.6593 48.6124 42.9875C48.2842 43.3156 47.8391 43.5 47.375 43.5H42.51C42.1429 43.4997 41.7851 43.384 41.4874 43.1692C41.1896 42.9544 40.967 42.6513 40.851 42.303Z" fill="#A3BEF1"/>
</svg>
