<svg width="54" height="54" viewBox="0 0 54 54" fill="none" xmlns="http://www.w3.org/2000/svg">
<path d="M2 20.05C2 12.8851 2 9.30168 4.2268 7.07678C6.4536 4.85188 10.0351 4.84998 17.2 4.84998H24.8C31.9649 4.84998 35.5483 4.84998 37.7732 7.07678C39.9981 9.30358 40 12.8851 40 20.05V23.85C40 31.0149 40 34.5983 37.7732 36.8232C35.5464 39.0481 31.9649 39.05 24.8 39.05H17.2C10.0351 39.05 6.4517 39.05 4.2268 36.8232C2.0019 34.5964 2 31.0149 2 23.85V20.05Z" stroke="#005CA9" stroke-width="2.5"/>
<path d="M11.5003 4.85V2M30.5003 4.85V2M2.95026 14.35H39.0503" stroke="#005CA9" stroke-width="2.5" stroke-linecap="round"/>
<path d="M31.8997 29.5496C31.8997 29.9209 31.7522 30.277 31.4896 30.5395C31.2271 30.8021 30.871 30.9496 30.4997 30.9496C30.1284 30.9496 29.7723 30.8021 29.5097 30.5395C29.2472 30.277 29.0997 29.9209 29.0997 29.5496C29.0997 29.1783 29.2472 28.8222 29.5097 28.5596C29.7723 28.2971 30.1284 28.1496 30.4997 28.1496C30.871 28.1496 31.2271 28.2971 31.4896 28.5596C31.7522 28.8222 31.8997 29.1783 31.8997 29.5496ZM31.8997 21.9496C31.8997 22.3209 31.7522 22.677 31.4896 22.9395C31.2271 23.2021 30.871 23.3496 30.4997 23.3496C30.1284 23.3496 29.7723 23.2021 29.5097 22.9395C29.2472 22.677 29.0997 22.3209 29.0997 21.9496C29.0997 21.5783 29.2472 21.2222 29.5097 20.9596C29.7723 20.6971 30.1284 20.5496 30.4997 20.5496C30.871 20.5496 31.2271 20.6971 31.4896 20.9596C31.7522 21.2222 31.8997 21.5783 31.8997 21.9496ZM22.3997 29.5496C22.3997 29.9209 22.2522 30.277 21.9896 30.5395C21.7271 30.8021 21.371 30.9496 20.9997 30.9496C20.6284 30.9496 20.2723 30.8021 20.0097 30.5395C19.7472 30.277 19.5997 29.9209 19.5997 29.5496C19.5997 29.1783 19.7472 28.8222 20.0097 28.5596C20.2723 28.2971 20.6284 28.1496 20.9997 28.1496C21.371 28.1496 21.7271 28.2971 21.9896 28.5596C22.2522 28.8222 22.3997 29.1783 22.3997 29.5496ZM22.3997 21.9496C22.3997 22.3209 22.2522 22.677 21.9896 22.9395C21.7271 23.2021 21.371 23.3496 20.9997 23.3496C20.6284 23.3496 20.2723 23.2021 20.0097 22.9395C19.7472 22.677 19.5997 22.3209 19.5997 21.9496C19.5997 21.5783 19.7472 21.2222 20.0097 20.9596C20.2723 20.6971 20.6284 20.5496 20.9997 20.5496C21.371 20.5496 21.7271 20.6971 21.9896 20.9596C22.2522 21.2222 22.3997 21.5783 22.3997 21.9496ZM12.8997 29.5496C12.8997 29.9209 12.7522 30.277 12.4896 30.5395C12.2271 30.8021 11.871 30.9496 11.4997 30.9496C11.1284 30.9496 10.7723 30.8021 10.5097 30.5395C10.2472 30.277 10.0997 29.9209 10.0997 29.5496C10.0997 29.1783 10.2472 28.8222 10.5097 28.5596C10.7723 28.2971 11.1284 28.1496 11.4997 28.1496C11.871 28.1496 12.2271 28.2971 12.4896 28.5596C12.7522 28.8222 12.8997 29.1783 12.8997 29.5496ZM12.8997 21.9496C12.8997 22.3209 12.7522 22.677 12.4896 22.9395C12.2271 23.2021 11.871 23.3496 11.4997 23.3496C11.1284 23.3496 10.7723 23.2021 10.5097 22.9395C10.2472 22.677 10.0997 22.3209 10.0997 21.9496C10.0997 21.5783 10.2472 21.2222 10.5097 20.9596C10.7723 20.6971 11.1284 20.5496 11.4997 20.5496C11.871 20.5496 12.2271 20.6971 12.4896 20.9596C12.7522 21.2222 12.8997 21.5783 12.8997 21.9496Z" fill="#005CA9" stroke="#005CA9"/>
<path fill-rule="evenodd" clip-rule="evenodd" d="M35.625 45.25H33.7333L33.1348 47.0455L32.8582 47.875H29.5V42.66C30.368 42.8858 31.6228 43.0625 33.4375 43.0625C33.7856 43.0625 34.1194 42.9242 34.3656 42.6781C34.6117 42.432 34.75 42.0981 34.75 41.75C34.75 41.4019 34.6117 41.0681 34.3656 40.8219C34.1194 40.5758 33.7856 40.4375 33.4375 40.4375C31.5598 40.4375 30.494 40.2275 29.941 40.0578C29.8197 40.0205 29.7005 39.9767 29.584 39.9265C29.7181 39.3493 30.0123 38.8216 30.4327 38.404C30.5611 38.2757 30.6859 38.1427 30.8073 38.005C33.476 38.7628 36.7625 39.125 40 39.125C43.2375 39.125 46.524 38.7628 49.1928 38.005C49.3129 38.1439 49.4377 38.2769 49.5672 38.404C49.989 38.8275 50.2812 39.356 50.416 39.9265C50.339 39.9639 50.22 40.0076 50.059 40.0578C49.506 40.2275 48.4403 40.4375 46.5625 40.4375C46.2144 40.4375 45.8806 40.5758 45.6344 40.8219C45.3883 41.0681 45.25 41.4019 45.25 41.75C45.25 42.0981 45.3883 42.432 45.6344 42.6781C45.8806 42.9242 46.2144 43.0625 46.5625 43.0625C48.3773 43.0625 49.632 42.8858 50.5 42.66V47.875H47.1418L46.8652 47.0455L46.2668 45.25H35.625ZM47.742 35.674C45.502 36.2165 42.772 36.5 40 36.5C37.228 36.5 34.498 36.2165 32.258 35.674C32.3117 35.5434 32.363 35.4115 32.412 35.2785L33.196 33.0788C33.511 32.195 34.1935 31.6683 34.876 31.5685C38.2743 31.0854 41.7239 31.0854 45.1222 31.5685C45.8083 31.6683 46.4872 32.195 46.8022 33.0788L47.5898 35.2785C47.6364 35.4115 47.6872 35.5434 47.742 35.674ZM44.851 49.303L44.375 47.875H35.625L35.149 49.303C35.0329 49.6516 34.81 49.9548 34.5119 50.1697C34.2138 50.3845 33.8557 50.5001 33.4882 50.5H28.625C28.1609 50.5 27.7158 50.3156 27.3876 49.9875C27.0594 49.6593 26.875 49.2141 26.875 48.75V40.6563C26.875 39.1163 27.4875 37.6375 28.576 36.549C28.858 36.2678 29.1102 35.9581 29.3285 35.625H28.1875C27.8394 35.625 27.5056 35.4867 27.2594 35.2406C27.0133 34.9945 26.875 34.6606 26.875 34.3125C26.875 33.9644 27.0133 33.6306 27.2594 33.3844C27.5056 33.1383 27.8394 33 28.1875 33H30.438L30.725 32.195C31.3253 30.515 32.734 29.227 34.4997 28.9715C38.1482 28.4521 41.8518 28.4521 45.5002 28.9715C47.266 29.227 48.6748 30.515 49.275 32.1968L49.562 33H51.8125C52.1606 33 52.4944 33.1383 52.7406 33.3844C52.9867 33.6306 53.125 33.9644 53.125 34.3125C53.125 34.6606 52.9867 34.9945 52.7406 35.2406C52.4944 35.4867 52.1606 35.625 51.8125 35.625H50.6733C50.8914 35.9587 51.1417 36.2667 51.424 36.549C52.5131 37.6385 53.1249 39.1158 53.125 40.6563V48.75C53.125 49.2141 52.9406 49.6593 52.6124 49.9875C52.2842 50.3156 51.8391 50.5 51.375 50.5H46.51C46.1429 50.4997 45.7851 50.384 45.4874 50.1692C45.1896 49.9544 44.967 49.6513 44.851 49.303Z" fill="#A3BEF1"/>
</svg>
