<svg width="32" height="37" viewBox="0 0 32 37" fill="none" xmlns="http://www.w3.org/2000/svg">
<path d="M21.25 19.5C20.7859 19.5 20.3408 19.6844 20.0126 20.0126C19.6844 20.3408 19.5 20.7859 19.5 21.25C19.5 21.7141 19.6844 22.1592 20.0126 22.4874C20.3408 22.8156 20.7859 23 21.25 23H23C23.4641 23 23.9092 22.8156 24.2374 22.4874C24.5656 22.1592 24.75 21.7141 24.75 21.25C24.75 20.7859 24.5656 20.3408 24.2374 20.0126C23.9092 19.6844 23.4641 19.5 23 19.5H21.25Z" fill="#005CA9"/>
<path fill-rule="evenodd" clip-rule="evenodd" d="M7.95 5.15C9.09105 3.6286 10.5707 2.39376 12.2716 1.54327C13.9726 0.692777 15.8482 0.25 17.75 0.25H26.5C27.8924 0.25 29.2277 0.803124 30.2123 1.78769C31.1969 2.77226 31.75 4.10761 31.75 5.5V28.25C31.75 29.1783 31.3813 30.0685 30.7249 30.7249C30.0685 31.3813 29.1783 31.75 28.25 31.75H3.75C2.82174 31.75 1.9315 31.3813 1.27513 30.7249C0.618749 30.0685 0.25 29.1783 0.25 28.25V18.3328C0.25 16.4395 0.864056 14.5973 2 13.0828L7.95 5.15ZM17.75 3.75C16.3916 3.75 15.0519 4.06627 13.8369 4.67376C12.6219 5.28125 11.565 6.16328 10.75 7.25L5.5 14.25H28.25V5.5C28.25 5.03587 28.0656 4.59075 27.7374 4.26256C27.4093 3.93437 26.9641 3.75 26.5 3.75H17.75ZM3.75 18.3328C3.75027 18.138 3.76137 17.9435 3.78325 17.75H28.25V28.25H3.75V18.3328Z" fill="#005CA9"/>
</svg>
