<svg width="40" height="34" viewBox="0 0 40 34" fill="none" xmlns="http://www.w3.org/2000/svg">
<path fill-rule="evenodd" clip-rule="evenodd" d="M13.4375 25.875H10.5999L9.70213 28.5683L9.28737 29.8125H4.25V21.99C5.552 22.3286 7.43412 22.5938 10.1562 22.5938C10.6784 22.5938 11.1792 22.3863 11.5484 22.0171C11.9176 21.6479 12.125 21.1471 12.125 20.625C12.125 20.1029 11.9176 19.6021 11.5484 19.2329C11.1792 18.8637 10.6784 18.6562 10.1562 18.6562C7.33963 18.6562 5.741 18.3413 4.9115 18.0866C4.72956 18.0308 4.5508 17.965 4.376 17.8898C4.57711 17.0239 5.01838 16.2323 5.64913 15.606C5.84162 15.4135 6.02887 15.214 6.21088 15.0075C10.214 16.1441 15.1438 16.6875 20 16.6875C24.8563 16.6875 29.786 16.1441 33.7891 15.0075C33.9694 15.2158 34.1566 15.4153 34.3509 15.606C34.9835 16.2413 35.4219 17.034 35.624 17.8898C35.5085 17.9458 35.33 18.0114 35.0885 18.0866C34.259 18.3413 32.6604 18.6562 29.8438 18.6562C29.3216 18.6562 28.8208 18.8637 28.4516 19.2329C28.0824 19.6021 27.875 20.1029 27.875 20.625C27.875 21.1471 28.0824 21.6479 28.4516 22.0171C28.8208 22.3863 29.3216 22.5938 29.8438 22.5938C32.5659 22.5938 34.448 22.3286 35.75 21.99V29.8125H30.7126L30.2979 28.5683L29.4001 25.875H13.4375ZM31.613 11.511C28.253 12.3248 24.158 12.75 20 12.75C15.842 12.75 11.747 12.3248 8.387 11.511C8.4675 11.315 8.5445 11.1173 8.618 10.9178L9.794 7.61813C10.2665 6.2925 11.2902 5.50238 12.314 5.35275C17.4115 4.62809 22.5859 4.62809 27.6834 5.35275C28.7124 5.50238 29.7309 6.2925 30.2034 7.61813L31.3846 10.9178C31.4546 11.1173 31.5308 11.315 31.613 11.511ZM27.2765 31.9545L26.5625 29.8125H13.4375L12.7235 31.9545C12.5493 32.4774 12.215 32.9322 11.7679 33.2545C11.3207 33.5768 10.7835 33.7501 10.2324 33.75H2.9375C2.24131 33.75 1.57363 33.4734 1.08134 32.9812C0.589062 32.4889 0.3125 31.8212 0.3125 31.125V18.9844C0.3125 16.6744 1.23125 14.4563 2.864 12.8235C3.28704 12.4017 3.6653 11.9372 3.99275 11.4375H2.28125C1.75911 11.4375 1.25835 11.2301 0.889134 10.8609C0.519921 10.4917 0.3125 9.9909 0.3125 9.46875C0.3125 8.94661 0.519921 8.44585 0.889134 8.07663C1.25835 7.70742 1.75911 7.5 2.28125 7.5H5.657L6.0875 6.2925C6.98787 3.7725 9.101 1.8405 11.7496 1.45725C17.2223 0.678149 22.7777 0.678149 28.2504 1.45725C30.899 1.8405 33.0121 3.7725 33.9125 6.29513L34.343 7.5H37.7188C38.2409 7.5 38.7417 7.70742 39.1109 8.07663C39.4801 8.44585 39.6875 8.94661 39.6875 9.46875C39.6875 9.9909 39.4801 10.4917 39.1109 10.8609C38.7417 11.2301 38.2409 11.4375 37.7188 11.4375H36.0099C36.3371 11.938 36.7125 12.4 37.136 12.8235C38.7696 14.4577 39.6874 16.6737 39.6875 18.9844V31.125C39.6875 31.8212 39.4109 32.4889 38.9187 32.9812C38.4264 33.4734 37.7587 33.75 37.0625 33.75H29.765C29.2143 33.7496 28.6777 33.576 28.2311 33.2537C27.7845 32.9315 27.4505 32.477 27.2765 31.9545Z" fill="#005CA9"/>
</svg>
