<svg width="49" height="47" viewBox="0 0 49 47" fill="none" xmlns="http://www.w3.org/2000/svg">
<path d="M23.75 3.95831V6.33331C23.75 8.57215 23.75 9.69156 24.4467 10.3866C25.1402 11.0833 26.2596 11.0833 28.5 11.0833H30.875" stroke="#005CA9" stroke-width="2.5" stroke-linecap="round" stroke-linejoin="round"/>
<path d="M12.6666 17.4167H25.3333M12.6666 22.1667H25.3333M12.6666 26.9167H19.2691M6.33331 25.3333V12.6667C6.33331 8.18899 6.33331 5.94857 7.72506 4.55841C9.11523 3.16666 11.3556 3.16666 15.8333 3.16666H22.439C23.085 3.16666 23.4096 3.16666 23.7009 3.28699C23.9906 3.40732 24.2202 3.63532 24.6778 4.09449L30.7388 10.1555C31.198 10.6147 31.426 10.8427 31.5463 11.134C31.6666 11.4237 31.6666 11.7483 31.6666 12.3943V25.3333C31.6666 29.811 31.6666 32.0514 30.2749 33.4416C28.8847 34.8333 26.6443 34.8333 22.1666 34.8333H15.8333C11.3556 34.8333 9.11523 34.8333 7.72506 33.4416C6.33331 32.0514 6.33331 29.811 6.33331 25.3333Z" stroke="#005CA9" stroke-width="2.5" stroke-linecap="round" stroke-linejoin="round"/>
<rect x="22" y="25" width="12" height="12" rx="5" fill="white"/>
<path fill-rule="evenodd" clip-rule="evenodd" d="M30.625 41.25H28.7333L28.1348 43.0455L27.8582 43.875H24.5V38.66C25.368 38.8857 26.6228 39.0625 28.4375 39.0625C28.7856 39.0625 29.1194 38.9242 29.3656 38.6781C29.6117 38.4319 29.75 38.0981 29.75 37.75C29.75 37.4019 29.6117 37.0681 29.3656 36.8219C29.1194 36.5758 28.7856 36.4375 28.4375 36.4375C26.5598 36.4375 25.494 36.2275 24.941 36.0577C24.8197 36.0205 24.7005 35.9767 24.584 35.9265C24.7181 35.3493 25.0123 34.8216 25.4327 34.404C25.5611 34.2757 25.6859 34.1427 25.8073 34.005C28.476 34.7627 31.7625 35.125 35 35.125C38.2375 35.125 41.524 34.7627 44.1928 34.005C44.3129 34.1438 44.4377 34.2768 44.5672 34.404C44.989 34.8275 45.2812 35.356 45.416 35.9265C45.339 35.9638 45.22 36.0076 45.059 36.0577C44.506 36.2275 43.4403 36.4375 41.5625 36.4375C41.2144 36.4375 40.8806 36.5758 40.6344 36.8219C40.3883 37.0681 40.25 37.4019 40.25 37.75C40.25 38.0981 40.3883 38.4319 40.6344 38.6781C40.8806 38.9242 41.2144 39.0625 41.5625 39.0625C43.3773 39.0625 44.632 38.8857 45.5 38.66V43.875H42.1418L41.8652 43.0455L41.2668 41.25H30.625ZM42.742 31.674C40.502 32.2165 37.772 32.5 35 32.5C32.228 32.5 29.498 32.2165 27.258 31.674C27.3117 31.5433 27.363 31.4115 27.412 31.2785L28.196 29.0787C28.511 28.195 29.1935 27.6682 29.876 27.5685C33.2743 27.0854 36.7239 27.0854 40.1222 27.5685C40.8083 27.6682 41.4872 28.195 41.8022 29.0787L42.5898 31.2785C42.6364 31.4115 42.6872 31.5433 42.742 31.674ZM39.851 45.303L39.375 43.875H30.625L30.149 45.303C30.0329 45.6516 29.81 45.9548 29.5119 46.1697C29.2138 46.3845 28.8557 46.5001 28.4882 46.5H23.625C23.1609 46.5 22.7158 46.3156 22.3876 45.9874C22.0594 45.6592 21.875 45.2141 21.875 44.75V36.6562C21.875 35.1162 22.4875 33.6375 23.576 32.549C23.858 32.2678 24.1102 31.9581 24.3285 31.625H23.1875C22.8394 31.625 22.5056 31.4867 22.2594 31.2406C22.0133 30.9944 21.875 30.6606 21.875 30.3125C21.875 29.9644 22.0133 29.6306 22.2594 29.3844C22.5056 29.1383 22.8394 29 23.1875 29H25.438L25.725 28.195C26.3253 26.515 27.734 25.227 29.4997 24.9715C33.1482 24.4521 36.8518 24.4521 40.5002 24.9715C42.266 25.227 43.6748 26.515 44.275 28.1967L44.562 29H46.8125C47.1606 29 47.4944 29.1383 47.7406 29.3844C47.9867 29.6306 48.125 29.9644 48.125 30.3125C48.125 30.6606 47.9867 30.9944 47.7406 31.2406C47.4944 31.4867 47.1606 31.625 46.8125 31.625H45.6733C45.8914 31.9587 46.1417 32.2667 46.424 32.549C47.5131 33.6384 48.1249 35.1158 48.125 36.6562V44.75C48.125 45.2141 47.9406 45.6592 47.6124 45.9874C47.2842 46.3156 46.8391 46.5 46.375 46.5H41.51C41.1429 46.4997 40.7851 46.384 40.4874 46.1692C40.1896 45.9543 39.967 45.6513 39.851 45.303Z" fill="#A3BEF1"/>
</svg>
